# xmcd
#
# Track frame offsets: 
#        150
#        25395
#        45662
#        65445
#        87067
#        107467
#        130572
#        149882
#        164630
#        193440
#        210807
#        226287
#        243637
#
# Disc length: 3555 seconds
#
# Revision: 3
# Processed by: cddbd v1.5.2PL0 Copyright (c) Steve Scherf et al.
# Submitted via: ExactAudioCopy v1.0b3
#
DISCID=b70de10d
DTITLE=CHAGE and ASKA - 黄昏の騎士 PCCA-00098
DYEAR=1982
DGENRE=JPop
TTITLE0=黄昏の騎士
TTITLE1=南十字星
TTITLE2=男と女
TTITLE3=夜のジプシー
TTITLE4=月が海にとける夜
TTITLE5=誓い
TTITLE6=いろはにほへと
TTITLE7=琥珀色の情景
TTITLE8=安息の日々
TTITLE9=愛すべきばかちんたちへ
TTITLE10=長い雨のあとに (Bonus Track)
TTITLE11=放浪人 -TABIBITO- (Bonus Track)
TTITLE12=真夏の国境 (Bonus Track)
EXTD=YEAR: 1982
EXTT0=
EXTT1=
EXTT2=
EXTT3=
EXTT4=
EXTT5=
EXTT6=
EXTT7=
EXTT8=
EXTT9=
EXTT10=
EXTT11=
EXTT12=
PLAYORDER=
